<?xml version="1.0" encoding="UTF-8" standalone="no"?>
<svg
   xmlns:dc="http://purl.org/dc/elements/1.1/"
   xmlns:cc="http://creativecommons.org/ns#"
   xmlns:rdf="http://www.w3.org/1999/02/22-rdf-syntax-ns#"
   xmlns:svg="http://www.w3.org/2000/svg"
   xmlns="http://www.w3.org/2000/svg"
   height="90"
   width="90"
   id="svg2"
   xml:space="preserve"
   enable-background="new 0 0 100 100"
   viewBox="0 0 90 90"
   y="0px"
   x="0px"
   version="1.1"><metadata
     id="metadata24"><rdf:RDF><cc:Work
         rdf:about=""><dc:format>image/svg+xml</dc:format><dc:type
           rdf:resource="http://purl.org/dc/dcmitype/StillImage" /><dc:title></dc:title></cc:Work></rdf:RDF></metadata><defs
     id="defs22" /><path
     id="path4"
     d="m 71.3,21.3 c -3.2,0 -5.7,3.8 -5.7,8.8 0,5 2.5,8.8 5.7,8.8 3.2,0 5.7,-3.8 5.7,-8.8 0,-5 -2.6,-8.8 -5.7,-8.8 z m 0,15 c -1.5,0 -3.2,-2.6 -3.2,-6.3 0,-3.7 1.7,-6.3 3.2,-6.3 1.5,0 3.2,2.6 3.2,6.3 0,3.7 -1.7,6.3 -3.2,6.3 z" /><path
     id="path6"
     d="M 71.3,0 18.8,0 C 8.2,0 0,13.2 0,30 L 0,87.5 C 0,88.9 1.1,90 2.5,90 l 55,0 C 58.9,90 60,88.9 60,87.5 L 60,60 72.5,60 c 0.4,0 0.7,-0.1 1,-0.2 C 82.9,58.1 90,45.6 90,30 90,13.2 81.8,0 71.3,0 Z m 0,55 C 63.8,55 57.5,43.6 57.5,30 57.5,16.4 63.8,5 71.3,5 78.8,5 85,16.4 85,30 85,43.6 78.7,55 71.3,55 Z M 55,85 5,85 5,46.3 l 2.5,0 0,-2.5 L 5,43.8 5,30 C 5,16.4 11.3,5 18.8,5 L 64.5,5 C 58.9,9.3 55,18.9 55,30 l 0,13.8 -2.5,0 0,2.5 2.5,0 0,11.3 0,27.4 z m 2.5,-30 0,-10.4 c 1.7,4.5 4.1,8.1 7,10.4 l -7,0 z" /><rect
     id="rect8"
     height="2.5"
     width="5"
     y="43.799999"
     x="32.5" /><rect
     id="rect10"
     height="2.5"
     width="5"
     y="43.799999"
     x="12.5" /><rect
     id="rect12"
     height="2.5"
     width="5"
     y="43.799999"
     x="22.5" /><rect
     id="rect14"
     height="2.5"
     width="5"
     y="43.799999"
     x="42.5" /></svg>